<svg xmlns="http://www.w3.org/2000/svg" version="1.1" xmlns:xlink="http://www.w3.org/1999/xlink" xmlns:svgjs="http://svgjs.dev/svgjs" viewBox="0 0 7.9293417170845135 9.216348286723221"><g transform="matrix(1,0,0,1,0.7119853116672568,6.595801939899715)"><rect width="9.216348286723221" height="9.216348286723221" x="-1.3554885964866106" y="-6.595801939899715" fill="#1c3423"></rect><g><path d=" M 0.542724609375 0.21166992187500022 L 0.526611328125 0.21166992187500022 Q 0.520751953125 0.19482421875000022 0.5079345703125 0.17358398437500022 Q 0.4951171875 0.15234375000000022 0.4742431640625 0.13366699218750022 Q 0.453369140625 0.11499023437500022 0.4237060546875 0.10253906250000022 Q 0.39404296875 0.09008789062500022 0.353759765625 0.09008789062500022 Q 0.31787109375 0.09008789062500022 0.2900390625 0.10107421875000022 Q 0.26220703125 0.11206054687500022 0.2435302734375 0.13183593750000022 Q 0.224853515625 0.15161132812500022 0.21533203125 0.17871093750000022 Q 0.205810546875 0.20581054687500022 0.205810546875 0.23876953125000022 Q 0.205810546875 0.2915039062500002 0.2354736328125 0.3394775390625002 Q 0.26513671875 0.3874511718750002 0.309814453125 0.4343261718750002 Q 0.3544921875 0.4812011718750002 0.406494140625 0.5280761718750002 Q 0.45849609375 0.5749511718750002 0.503173828125 0.6254882812500002 Q 0.5478515625 0.6760253906250002 0.5775146484375 0.7313232421875002 Q 0.607177734375 0.7866210937500002 0.607177734375 0.8503417968750002 Q 0.607177734375 0.8979492187500002 0.5906982421875 0.9459228515625002 Q 0.57421875 0.9938964843750002 0.539794921875 1.0319824218750002 Q 0.50537109375 1.0700683593750002 0.451171875 1.0938720703125002 Q 0.39697265625 1.1176757812500002 0.322265625 1.1176757812500002 Q 0.280517578125 1.1176757812500002 0.2427978515625 1.1099853515625002 Q 0.205078125 1.1022949218750002 0.1732177734375 1.0909423828125002 Q 0.141357421875 1.0795898437500002 0.1160888671875 1.0664062500000002 Q 0.0908203125 1.0532226562500002 0.07470703125 1.0422363281250002 L 0.091552734375 0.8803710937500002 L 0.10986328125 0.8803710937500002 Q 0.117919921875 0.9147949218750002 0.13623046875 0.9459228515625002 Q 0.154541015625 0.9770507812500002 0.1812744140625 1.0008544921875002 Q 0.2080078125 1.0246582031250002 0.242431640625 1.0389404296875002 Q 0.27685546875 1.0532226562500002 0.31787109375 1.0532226562500002 Q 0.355224609375 1.0532226562500002 0.3848876953125 1.0418701171875002 Q 0.41455078125 1.0305175781250002 0.435791015625 1.0103759765625002 Q 0.45703125 0.9902343750000002 0.4683837890625 0.9624023437500002 Q 0.479736328125 0.9345703125000002 0.479736328125 0.9016113281250002 Q 0.479736328125 0.8554687500000002 0.462890625 0.8162841796875002 Q 0.446044921875 0.7770996093750002 0.4185791015625 0.7419433593750002 Q 0.39111328125 0.7067871093750002 0.3563232421875 0.6738281250000002 Q 0.321533203125 0.6408691406250002 0.284912109375 0.6075439453125002 Q 0.248291015625 0.5742187500000002 0.2135009765625 0.5390625000000002 Q 0.1787109375 0.5039062500000002 0.1512451171875 0.4639892578125002 Q 0.123779296875 0.4240722656250002 0.10693359375 0.3782958984375002 Q 0.090087890625 0.3325195312500002 0.090087890625 0.2775878906250002 Q 0.090087890625 0.21972656250000022 0.1124267578125 0.17321777343750022 Q 0.134765625 0.12670898437500022 0.1717529296875 0.09375000000000022 Q 0.208740234375 0.06079101562500022 0.255615234375 0.04321289062500022 Q 0.302490234375 0.025634765625000222 0.352294921875 0.025634765625000222 Q 0.388916015625 0.025634765625000222 0.419677734375 0.03149414062500022 Q 0.450439453125 0.03735351562500022 0.4749755859375 0.04541015625000022 Q 0.49951171875 0.05346679687500022 0.517822265625 0.06152343750000022 Q 0.5361328125 0.06958007812500022 0.5478515625 0.07470703125000022 L 0.542724609375 0.21166992187500022 M 1.059814453125 1.0517578125000002 Q 1.081787109375 1.0517578125000002 1.1033935546875 1.0437011718750002 Q 1.125 1.0356445312500002 1.1451416015625 1.0217285156250002 Q 1.165283203125 1.0078125000000002 1.1839599609375 0.9898681640625002 Q 1.20263671875 0.9719238281250002 1.21875 0.9521484375000002 L 1.22607421875 0.9558105468750002 L 1.178466796875 1.0737304687500002 Q 1.169677734375 1.0781250000000002 1.1568603515625 1.0843505859375002 Q 1.14404296875 1.0905761718750002 1.1260986328125 1.0960693359375002 Q 1.108154296875 1.1015625000000002 1.083984375 1.1055908203125002 Q 1.059814453125 1.1096191406250002 1.02685546875 1.1096191406250002 Q 0.9287109375000001 1.1096191406250002 0.8741455078125001 1.0565185546875002 Q 0.8195800781250001 1.0034179687500002 0.8195800781250001 0.8906250000000002 L 0.8195800781250001 0.4020996093750002 L 0.6965332031250001 0.4064941406250002 L 0.6965332031250001 0.3420410156250002 Q 0.7192382812500001 0.3435058593750002 0.7507324218750001 0.3442382812500002 Q 0.7822265625000001 0.3449707031250002 0.8195800781250001 0.3449707031250002 Q 0.8188476562500001 0.2929687500000002 0.8170166015625001 0.2530517578125002 Q 0.8151855468750001 0.21313476562500022 0.8126220703125001 0.18347167968750022 Q 0.8100585937500001 0.15380859375000022 0.8063964843750001 0.13330078125000022 Q 0.8027343750000001 0.11279296875000022 0.7990722656250001 0.09887695312500022 L 0.7990722656250001 0.09594726562500022 L 0.9682617187500001 0.09594726562500022 L 0.9682617187500001 0.09887695312500022 Q 0.9638671875000001 0.11279296875000022 0.9602050781250001 0.13330078125000022 Q 0.9565429687500001 0.15380859375000022 0.9539794921875001 0.18310546875000022 Q 0.9514160156250001 0.21240234375000022 0.9495849609375001 0.2523193359375002 Q 0.9477539062500001 0.2922363281250002 0.9470214843750001 0.3449707031250002 Q 0.9931640625000001 0.3442382812500002 1.0374755859375 0.3431396484375002 Q 1.081787109375 0.3420410156250002 1.1180419921875 0.3402099609375002 Q 1.154296875 0.3383789062500002 1.1795654296875 0.3365478515625002 Q 1.204833984375 0.3347167968750002 1.212890625 0.3332519531250002 L 1.19970703125 0.4079589843750002 Q 1.162353515625 0.4072265625000002 1.121337890625 0.4057617187500002 Q 1.086181640625 0.4042968750000002 1.040771484375 0.4035644531250002 Q 0.9953613281250001 0.4028320312500002 0.9470214843750001 0.4020996093750002 L 0.9470214843750001 0.9060058593750002 Q 0.9470214843750001 0.9514160156250002 0.9569091796875001 0.9796142578125002 Q 0.9667968750000001 1.0078125000000002 0.9825439453125001 1.0239257812500002 Q 0.9982910156250001 1.0400390625000002 1.0184326171875 1.0458984375000002 Q 1.03857421875 1.0517578125000002 1.059814453125 1.0517578125000002 M 1.3110351562500002 0.8789062500000002 Q 1.3110351562500002 0.8210449218750002 1.3348388671875002 0.7785644531250002 Q 1.3586425781250002 0.7360839843750002 1.3981933593750002 0.7060546875000002 Q 1.4377441406250002 0.6760253906250002 1.4882812500000002 0.6573486328125002 Q 1.5388183593750002 0.6386718750000002 1.5930175781250002 0.6280517578125002 Q 1.6472167968750002 0.6174316406250002 1.6999511718750002 0.6134033203125002 Q 1.7526855468750002 0.6093750000000002 1.7966308593750002 0.6086425781250002 L 1.7966308593750002 0.5712890625000002 Q 1.7966308593750002 0.5229492187500002 1.7841796875000002 0.4877929687500002 Q 1.7717285156250002 0.4526367187500002 1.7490234375000002 0.4295654296875002 Q 1.7263183593750002 0.4064941406250002 1.6944580078125002 0.3951416015625002 Q 1.6625976562500002 0.3837890625000002 1.6245117187500002 0.3837890625000002 Q 1.5981445312500002 0.3837890625000002 1.5725097656250002 0.3881835937500002 Q 1.5468750000000002 0.3925781250000002 1.5194091796875002 0.4028320312500002 Q 1.4919433593750002 0.4130859375000002 1.4615478515625002 0.4306640625000002 Q 1.4311523437500002 0.4482421875000002 1.3959960937500002 0.4753417968750002 L 1.3886718750000002 0.4709472656250002 L 1.4384765625000002 0.3676757812500002 Q 1.4626464843750002 0.3566894531250002 1.4860839843750002 0.3497314453125002 Q 1.5095214843750002 0.3427734375000002 1.5336914062500002 0.3383789062500002 Q 1.5578613281250002 0.3339843750000002 1.5831298828125002 0.3321533203125002 Q 1.6083984375000002 0.3303222656250002 1.6362304687500002 0.3303222656250002 Q 1.7131347656250002 0.3303222656250002 1.7677001953125002 0.3489990234375002 Q 1.8222656250000002 0.3676757812500002 1.8570556640625002 0.4002685546875002 Q 1.8918457031250002 0.4328613281250002 1.9079589843750002 0.4764404296875002 Q 1.9240722656250002 0.5200195312500002 1.9240722656250002 0.5698242187500002 L 1.9240722656250002 0.8085937500000002 Q 1.9240722656250002 0.8708496093750002 1.9259033203125002 0.9173583984375002 Q 1.9277343750000002 0.9638671875000002 1.9302978515625002 0.9975585937500002 Q 1.9328613281250002 1.0312500000000002 1.9368896484375002 1.0539550781250002 Q 1.9409179687500002 1.0766601562500002 1.9453125000000002 1.0920410156250002 L 1.9453125000000002 1.0949707031250002 L 1.7834472656250002 1.0949707031250002 L 1.7834472656250002 1.0920410156250002 Q 1.7871093750000002 1.0803222656250002 1.7889404296875002 1.0656738281250002 Q 1.7907714843750002 1.0510253906250002 1.7922363281250002 1.0305175781250002 Q 1.7768554687500002 1.0437011718750002 1.7559814453125002 1.0576171875000002 Q 1.7351074218750002 1.0715332031250002 1.7083740234375002 1.0828857421875002 Q 1.6816406250000002 1.0942382812500002 1.6490478515625002 1.1011962890625002 Q 1.6164550781250002 1.1081542968750002 1.5776367187500002 1.1081542968750002 Q 1.4501953125000002 1.1081542968750002 1.3806152343750002 1.0484619140625002 Q 1.3110351562500002 0.9887695312500002 1.3110351562500002 0.8789062500000002 M 1.7966308593750002 0.6657714843750002 Q 1.7299804687500002 0.6665039062500002 1.6684570312500002 0.6734619140625002 Q 1.6069335937500002 0.6804199218750002 1.5596923828125002 0.7023925781250002 Q 1.5124511718750002 0.7243652343750002 1.4842529296875002 0.7650146484375002 Q 1.4560546875000002 0.8056640625000002 1.4560546875000002 0.8730468750000002 Q 1.4560546875000002 0.9594726562500002 1.4992675781250002 1.0048828125000002 Q 1.5424804687500002 1.0502929687500002 1.6186523437500002 1.0502929687500002 Q 1.6538085937500002 1.0502929687500002 1.6827392578125002 1.0404052734375002 Q 1.7116699218750002 1.0305175781250002 1.7340087890625002 1.0155029296875002 Q 1.7563476562500002 1.0004882812500002 1.7717285156250002 0.9825439453125002 Q 1.7871093750000002 0.9645996093750002 1.7951660156250002 0.9477539062500002 Q 1.7966308593750002 0.9199218750000002 1.7966308593750002 0.8858642578125002 Q 1.7966308593750002 0.8518066406250002 1.7966308593750002 0.8085937500000002 L 1.7966308593750002 0.6657714843750002 M 2.40966796875 1.0517578125000002 Q 2.431640625 1.0517578125000002 2.4532470703125 1.0437011718750002 Q 2.474853515625 1.0356445312500002 2.4949951171875 1.0217285156250002 Q 2.51513671875 1.0078125000000002 2.5338134765625 0.9898681640625002 Q 2.552490234375 0.9719238281250002 2.568603515625 0.9521484375000002 L 2.575927734375 0.9558105468750002 L 2.5283203125 1.0737304687500002 Q 2.51953125 1.0781250000000002 2.5067138671875 1.0843505859375002 Q 2.493896484375 1.0905761718750002 2.4759521484375 1.0960693359375002 Q 2.4580078125 1.1015625000000002 2.433837890625 1.1055908203125002 Q 2.40966796875 1.1096191406250002 2.376708984375 1.1096191406250002 Q 2.278564453125 1.1096191406250002 2.2239990234375 1.0565185546875002 Q 2.16943359375 1.0034179687500002 2.16943359375 0.8906250000000002 L 2.16943359375 0.4020996093750002 L 2.04638671875 0.4064941406250002 L 2.04638671875 0.3420410156250002 Q 2.069091796875 0.3435058593750002 2.1005859375 0.3442382812500002 Q 2.132080078125 0.3449707031250002 2.16943359375 0.3449707031250002 Q 2.168701171875 0.2929687500000002 2.1668701171875 0.2530517578125002 Q 2.1650390625 0.21313476562500022 2.1624755859375 0.18347167968750022 Q 2.159912109375 0.15380859375000022 2.15625 0.13330078125000022 Q 2.152587890625 0.11279296875000022 2.14892578125 0.09887695312500022 L 2.14892578125 0.09594726562500022 L 2.318115234375 0.09594726562500022 L 2.318115234375 0.09887695312500022 Q 2.313720703125 0.11279296875000022 2.31005859375 0.13330078125000022 Q 2.306396484375 0.15380859375000022 2.3038330078125 0.18310546875000022 Q 2.30126953125 0.21240234375000022 2.2994384765625 0.2523193359375002 Q 2.297607421875 0.2922363281250002 2.296875 0.3449707031250002 Q 2.343017578125 0.3442382812500002 2.3873291015625 0.3431396484375002 Q 2.431640625 0.3420410156250002 2.4678955078125 0.3402099609375002 Q 2.504150390625 0.3383789062500002 2.5294189453125 0.3365478515625002 Q 2.5546875 0.3347167968750002 2.562744140625 0.3332519531250002 L 2.549560546875 0.4079589843750002 Q 2.51220703125 0.4072265625000002 2.47119140625 0.4057617187500002 Q 2.43603515625 0.4042968750000002 2.390625 0.4035644531250002 Q 2.34521484375 0.4028320312500002 2.296875 0.4020996093750002 L 2.296875 0.9060058593750002 Q 2.296875 0.9514160156250002 2.3067626953125 0.9796142578125002 Q 2.316650390625 1.0078125000000002 2.3323974609375 1.0239257812500002 Q 2.34814453125 1.0400390625000002 2.3682861328125 1.0458984375000002 Q 2.388427734375 1.0517578125000002 2.40966796875 1.0517578125000002 M 3.047607421875 1.1081542968750002 Q 2.96630859375 1.1081542968750002 2.895263671875 1.0825195312500002 Q 2.82421875 1.0568847656250002 2.771484375 1.0074462890625002 Q 2.71875 0.9580078125000002 2.6883544921875 0.8851318359375002 Q 2.657958984375 0.8122558593750002 2.657958984375 0.7185058593750002 Q 2.657958984375 0.6357421875000002 2.685791015625 0.5650634765625002 Q 2.713623046875 0.4943847656250002 2.7626953125 0.4423828125000002 Q 2.811767578125 0.3903808593750002 2.8773193359375 0.3610839843750002 Q 2.94287109375 0.3317871093750002 3.01904296875 0.3317871093750002 Q 3.094482421875 0.3317871093750002 3.158935546875 0.3577880859375002 Q 3.223388671875 0.3837890625000002 3.2706298828125 0.4332275390625002 Q 3.31787109375 0.4826660156250002 3.3453369140625 0.5555419921875002 Q 3.372802734375 0.6284179687500002 3.375 0.7214355468750002 Q 3.292236328125 0.7199707031250002 3.20947265625 0.7192382812500002 Q 3.126708984375 0.7185058593750002 3.037353515625 0.7185058593750002 Q 2.9736328125 0.7185058593750002 2.9132080078125 0.7192382812500002 Q 2.852783203125 0.7199707031250002 2.804443359375 0.7214355468750002 Q 2.808837890625 0.7976074218750002 2.8282470703125 0.8591308593750002 Q 2.84765625 0.9206542968750002 2.8817138671875 0.9642333984375002 Q 2.915771484375 1.0078125000000002 2.9644775390625 1.0312500000000002 Q 3.01318359375 1.0546875000000002 3.07470703125 1.0546875000000002 Q 3.1171875 1.0546875000000002 3.1549072265625 1.0447998046875002 Q 3.192626953125 1.0349121093750002 3.223388671875 1.0173339843750002 Q 3.254150390625 0.9997558593750002 3.2783203125 0.9759521484375002 Q 3.302490234375 0.9521484375000002 3.3193359375 0.9243164062500002 L 3.328125 0.9287109375000002 L 3.27392578125 1.0590820312500002 Q 3.234375 1.0795898437500002 3.179443359375 1.0938720703125002 Q 3.12451171875 1.1081542968750002 3.047607421875 1.1081542968750002 M 2.9501953125 0.6613769531250002 Q 3.0234375 0.6613769531250002 3.0970458984375 0.6610107421875002 Q 3.170654296875 0.6606445312500002 3.230712890625 0.6584472656250002 Q 3.22412109375 0.5947265625000002 3.205810546875 0.5441894531250002 Q 3.1875 0.4936523437500002 3.158935546875 0.4584960937500002 Q 3.13037109375 0.4233398437500002 3.091552734375 0.4042968750000002 Q 3.052734375 0.3852539062500002 3.005859375 0.3852539062500002 Q 2.96337890625 0.3852539062500002 2.9278564453125 0.4039306640625002 Q 2.892333984375 0.4226074218750002 2.865966796875 0.4577636718750002 Q 2.839599609375 0.4929199218750002 2.823486328125 0.5438232421875002 Q 2.807373046875 0.5947265625000002 2.804443359375 0.6599121093750002 Q 2.83740234375 0.6613769531250002 2.8740234375 0.6613769531250002 Q 2.91064453125 0.6613769531250002 2.9501953125 0.6613769531250002 M 3.67822265625 0.8085937500000002 Q 3.67822265625 0.8708496093750002 3.6800537109375 0.9173583984375002 Q 3.681884765625 0.9638671875000002 3.6844482421875 0.9975585937500002 Q 3.68701171875 1.0312500000000002 3.6910400390625 1.0539550781250002 Q 3.695068359375 1.0766601562500002 3.699462890625 1.0920410156250002 L 3.699462890625 1.0949707031250002 L 3.523681640625 1.0949707031250002 L 3.523681640625 1.0920410156250002 Q 3.528076171875 1.0766601562500002 3.5321044921875 1.0539550781250002 Q 3.5361328125 1.0312500000000002 3.5390625 0.9975585937500002 Q 3.5419921875 0.9638671875000002 3.54345703125 0.9173583984375002 Q 3.544921875 0.8708496093750002 3.544921875 0.8085937500000002 L 3.544921875 0.3317871093750002 Q 3.544921875 0.2695312500000002 3.54345703125 0.22302246093750022 Q 3.5419921875 0.17651367187500022 3.5390625 0.14245605468750022 Q 3.5361328125 0.10839843750000022 3.5321044921875 0.08569335937500022 Q 3.528076171875 0.06298828125000022 3.523681640625 0.04760742187500022 L 3.523681640625 0.04467773437500022 Q 3.58447265625 0.04467773437500022 3.646728515625 0.04431152343750022 Q 3.708984375 0.04394531250000022 3.767578125 0.04357910156250022 Q 3.826171875 0.04321289062500022 3.87890625 0.04211425781250022 Q 3.931640625 0.04101562500000022 3.97412109375 0.03991699218750022 Q 4.0166015625 0.03881835937500022 4.0458984375 0.03698730468750022 Q 4.0751953125 0.03515625000000022 4.087646484375 0.03295898437500022 L 4.0517578125 0.13037109375000022 Q 4.027587890625 0.12377929687500022 3.995361328125 0.11865234375000022 Q 3.967529296875 0.11425781250000022 3.9276123046875 0.11022949218750022 Q 3.8876953125 0.10620117187500022 3.835693359375 0.10620117187500022 Q 3.818115234375 0.10620117187500022 3.791748046875 0.10729980468750022 Q 3.765380859375 0.10839843750000022 3.73974609375 0.10986328125000022 Q 3.71044921875 0.11132812500000022 3.67822265625 0.11279296875000022 L 3.67822265625 0.4826660156250002 Q 3.753662109375 0.4819335937500002 3.816650390625 0.4782714843750002 Q 3.879638671875 0.4746093750000002 3.925048828125 0.4709472656250002 Q 3.977783203125 0.4665527343750002 4.020263671875 0.4606933593750002 L 3.998291015625 0.5668945312500002 Q 3.943359375 0.5603027343750002 3.886962890625 0.5544433593750002 Q 3.838623046875 0.5493164062500002 3.782958984375 0.5452880859375002 Q 3.727294921875 0.5412597656250002 3.67822265625 0.5412597656250002 L 3.67822265625 0.8085937500000002 M 4.234130859375 0.2863769531250002 Q 4.234130859375 0.22412109375000022 4.2322998046875 0.17761230468750022 Q 4.23046875 0.13110351562500022 4.2279052734375 0.09741210937500022 Q 4.225341796875 0.06372070312500022 4.2213134765625 0.04101562500000022 Q 4.21728515625 0.018310546875000222 4.212890625 0.002929687500000222 L 4.212890625 2.220446049250313e-16 L 4.382080078125 2.220446049250313e-16 L 4.382080078125 0.002929687500000222 Q 4.377685546875 0.018310546875000222 4.3740234375 0.04101562500000022 Q 4.370361328125 0.06372070312500022 4.367431640625 0.09741210937500022 Q 4.364501953125 0.13110351562500022 4.363037109375 0.17761230468750022 Q 4.361572265625 0.22412109375000022 4.361572265625 0.2863769531250002 L 4.361572265625 0.8085937500000002 Q 4.361572265625 0.8708496093750002 4.363037109375 0.9173583984375002 Q 4.364501953125 0.9638671875000002 4.367431640625 0.9975585937500002 Q 4.370361328125 1.0312500000000002 4.3740234375 1.0539550781250002 Q 4.377685546875 1.0766601562500002 4.382080078125 1.0920410156250002 L 4.382080078125 1.0949707031250002 L 4.212890625 1.0949707031250002 L 4.212890625 1.0920410156250002 Q 4.21728515625 1.0766601562500002 4.2213134765625 1.0539550781250002 Q 4.225341796875 1.0312500000000002 4.2279052734375 0.9975585937500002 Q 4.23046875 0.9638671875000002 4.2322998046875 0.9173583984375002 Q 4.234130859375 0.8708496093750002 4.234130859375 0.8085937500000002 L 4.234130859375 0.2863769531250002 M 4.529296875 0.7185058593750002 Q 4.529296875 0.6357421875000002 4.56005859375 0.5650634765625002 Q 4.5908203125 0.4943847656250002 4.6446533203125 0.4423828125000002 Q 4.698486328125 0.3903808593750002 4.771728515625 0.3610839843750002 Q 4.844970703125 0.3317871093750002 4.92919921875 0.3317871093750002 Q 5.011962890625 0.3317871093750002 5.0848388671875 0.3592529296875002 Q 5.15771484375 0.3867187500000002 5.2119140625 0.4372558593750002 Q 5.26611328125 0.4877929687500002 5.2972412109375 0.5603027343750002 Q 5.328369140625 0.6328125000000002 5.328369140625 0.7229003906250002 Q 5.328369140625 0.7983398437500002 5.302001953125 0.8679199218750002 Q 5.275634765625 0.9375000000000002 5.224365234375 0.9909667968750002 Q 5.173095703125 1.0444335937500002 5.0987548828125 1.0762939453125002 Q 5.0244140625 1.1081542968750002 4.927734375 1.1081542968750002 Q 4.845703125 1.1081542968750002 4.773193359375 1.0810546875000002 Q 4.70068359375 1.0539550781250002 4.646484375 1.0034179687500002 Q 4.59228515625 0.9528808593750002 4.560791015625 0.8807373046875002 Q 4.529296875 0.8085937500000002 4.529296875 0.7185058593750002 M 4.944580078125 1.0546875000000002 Q 4.99658203125 1.0546875000000002 5.0401611328125 1.0341796875000002 Q 5.083740234375 1.0136718750000002 5.115234375 0.9748535156250002 Q 5.146728515625 0.9360351562500002 5.164306640625 0.8803710937500002 Q 5.181884765625 0.8247070312500002 5.181884765625 0.7543945312500002 Q 5.181884765625 0.6752929687500002 5.1650390625 0.6075439453125002 Q 5.148193359375 0.5397949218750002 5.1148681640625 0.4903564453125002 Q 5.08154296875 0.4409179687500002 5.031005859375 0.4130859375000002 Q 4.98046875 0.3852539062500002 4.9130859375 0.3852539062500002 Q 4.861083984375 0.3852539062500002 4.81787109375 0.4053955078125002 Q 4.774658203125 0.4255371093750002 4.7427978515625 0.4636230468750002 Q 4.7109375 0.5017089843750002 4.693359375 0.5570068359375002 Q 4.67578125 0.6123046875000002 4.67578125 0.6826171875000002 Q 4.67578125 0.7617187500000002 4.6929931640625 0.8298339843750002 Q 4.710205078125 0.8979492187500002 4.743896484375 0.9481201171875002 Q 4.777587890625 0.9982910156250002 4.8277587890625 1.0264892578125002 Q 4.8779296875 1.0546875000000002 4.944580078125 1.0546875000000002 M 5.986083984375 0.4123535156250002 L 6.181640625 0.9045410156250002 L 6.344970703125 0.4965820312500002 Q 6.35009765625 0.4833984375000002 6.356689453125 0.4669189453125002 Q 6.36328125 0.4504394531250002 6.368408203125 0.4332275390625002 Q 6.37353515625 0.4160156250000002 6.377197265625 0.4002685546875002 Q 6.380859375 0.3845214843750002 6.380859375 0.3720703125000002 Q 6.380859375 0.3625488281250002 6.37939453125 0.3563232421875002 Q 6.3779296875 0.3500976562500002 6.37646484375 0.3479003906250002 L 6.37646484375 0.3449707031250002 L 6.50830078125 0.3449707031250002 L 6.50830078125 0.3479003906250002 Q 6.4951171875 0.3618164062500002 6.4764404296875 0.3936767578125002 Q 6.457763671875 0.4255371093750002 6.43212890625 0.4863281250000002 L 6.172119140625 1.1052246093750002 L 6.13037109375 1.1052246093750002 L 5.94140625 0.6467285156250002 L 5.75244140625 1.1052246093750002 L 5.710693359375 1.1052246093750002 L 5.470458984375 0.5222167968750002 Q 5.457275390625 0.4899902343750002 5.4422607421875 0.4603271484375002 Q 5.42724609375 0.4306640625000002 5.4136962890625 0.4072265625000002 Q 5.400146484375 0.3837890625000002 5.389892578125 0.3680419921875002 Q 5.379638671875 0.3522949218750002 5.3759765625 0.3479003906250002 L 5.3759765625 0.3449707031250002 L 5.57080078125 0.3449707031250002 L 5.57080078125 0.3479003906250002 Q 5.5693359375 0.3515625000000002 5.568603515625 0.3588867187500002 Q 5.56787109375 0.3662109375000002 5.56787109375 0.3720703125000002 Q 5.56787109375 0.3947753906250002 5.5748291015625 0.4222412109375002 Q 5.581787109375 0.4497070312500002 5.597900390625 0.4907226562500002 L 5.76123046875 0.9045410156250002 L 5.958251953125 0.4123535156250002 L 5.986083984375 0.4123535156250002" fill="#ffffff" fill-rule="nonzero"></path></g><g><path d=" M 1.646457977294922 1.7904360351562496 Q 1.647707977294922 1.8173110351562496 1.6605204772949218 1.8391860351562497 Q 1.673332977294922 1.8610610351562495 1.695520477294922 1.8763735351562496 Q 1.717707977294922 1.8916860351562497 1.7477079772949218 1.9001235351562495 Q 1.7777079772949218 1.9085610351562496 1.8133329772949218 1.9085610351562496 Q 1.849582977294922 1.9085610351562496 1.878645477294922 1.8998110351562496 Q 1.907707977294922 1.8910610351562496 1.9283329772949218 1.8748110351562495 Q 1.948957977294922 1.8585610351562496 1.960207977294922 1.8354360351562495 Q 1.971457977294922 1.8123110351562497 1.971457977294922 1.7841860351562495 Q 1.971457977294922 1.7454360351562497 1.9520829772949218 1.7207485351562495 Q 1.9327079772949218 1.6960610351562495 1.9036454772949218 1.6794985351562497 Q 1.8745829772949218 1.6629360351562497 1.840520477294922 1.6516860351562497 Q 1.8064579772949219 1.6404360351562497 1.7773954772949219 1.6279360351562495 Q 1.7483329772949219 1.6154360351562496 1.728957977294922 1.5991860351562495 Q 1.7095829772949218 1.5829360351562496 1.7095829772949218 1.5560610351562496 Q 1.7095829772949218 1.5410610351562495 1.7161454772949218 1.5279360351562497 Q 1.7227079772949219 1.5148110351562496 1.735520477294922 1.5051235351562495 Q 1.7483329772949219 1.4954360351562497 1.767082977294922 1.4894985351562495 Q 1.785832977294922 1.4835610351562496 1.810207977294922 1.4835610351562496 Q 1.850832977294922 1.4835610351562496 1.8792704772949218 1.5007485351562495 Q 1.907707977294922 1.5179360351562496 1.9127079772949218 1.5548110351562496 L 1.955207977294922 1.5548110351562496 Q 1.9514579772949219 1.5316860351562496 1.9383329772949218 1.5132485351562495 Q 1.9252079772949218 1.4948110351562496 1.9052079772949218 1.4819985351562495 Q 1.885207977294922 1.4691860351562496 1.8598954772949219 1.4626235351562495 Q 1.8345829772949218 1.4560610351562495 1.807082977294922 1.4560610351562495 Q 1.778332977294922 1.4560610351562495 1.752395477294922 1.4635610351562496 Q 1.7264579772949218 1.4710610351562496 1.706770477294922 1.4854360351562494 Q 1.6870829772949218 1.4998110351562497 1.675520477294922 1.5216860351562496 Q 1.6639579772949218 1.5435610351562497 1.6639579772949218 1.5716860351562496 Q 1.6639579772949218 1.6085610351562496 1.6827079772949218 1.6310610351562496 Q 1.7014579772949219 1.6535610351562495 1.7298954772949218 1.6685610351562497 Q 1.7583329772949219 1.6835610351562496 1.791457977294922 1.6941860351562497 Q 1.8245829772949218 1.7048110351562495 1.853020477294922 1.7182485351562495 Q 1.8814579772949218 1.7316860351562495 1.9002079772949219 1.7510610351562497 Q 1.918957977294922 1.7704360351562496 1.918957977294922 1.8029360351562496 Q 1.918957977294922 1.8435610351562495 1.8892704772949218 1.8623110351562495 Q 1.859582977294922 1.8810610351562496 1.810207977294922 1.8810610351562496 Q 1.7708329772949218 1.8810610351562496 1.747082977294922 1.8707485351562496 Q 1.723332977294922 1.8604360351562497 1.7108329772949218 1.8460610351562496 Q 1.6983329772949218 1.8316860351562496 1.6939579772949218 1.8163735351562496 Q 1.6895829772949218 1.8010610351562495 1.688957977294922 1.7904360351562496 L 1.646457977294922 1.7904360351562496 M 2.0839579772949217 1.5885610351562496 L 2.0839579772949217 1.9010610351562496 L 2.137082977294922 1.9010610351562496 L 2.137082977294922 1.5885610351562496 L 2.0839579772949217 1.5885610351562496 M 2.076457977294922 1.4898110351562495 Q 2.076457977294922 1.5035610351562496 2.0864579772949217 1.5135610351562496 Q 2.096457977294922 1.5235610351562496 2.110207977294922 1.5235610351562496 Q 2.1239579772949218 1.5235610351562496 2.133957977294922 1.5135610351562496 Q 2.1439579772949218 1.5035610351562496 2.1439579772949218 1.4898110351562495 Q 2.1439579772949218 1.4760610351562495 2.133957977294922 1.4660610351562495 Q 2.1239579772949218 1.4560610351562495 2.110207977294922 1.4560610351562495 Q 2.096457977294922 1.4560610351562495 2.0864579772949217 1.4660610351562495 Q 2.076457977294922 1.4760610351562495 2.076457977294922 1.4898110351562495 M 2.5176976013183596 1.9010610351562496 L 2.5176976013183596 1.6985610351562497 Q 2.5176976013183596 1.6873110351562497 2.5158226013183596 1.6676235351562496 Q 2.5139476013183595 1.6479360351562495 2.5036351013183595 1.6288735351562496 Q 2.4933226013183596 1.6098110351562496 2.4708226013183596 1.5957485351562495 Q 2.448322601318359 1.5816860351562496 2.4070726013183594 1.5816860351562496 Q 2.3889476013183595 1.5810610351562495 2.3664476013183595 1.5888735351562495 Q 2.3439476013183596 1.5966860351562495 2.3220726013183595 1.6185610351562496 L 2.3120726013183592 1.6285610351562496 L 2.3095726013183593 1.6285610351562496 L 2.3095726013183593 1.5885610351562496 L 2.256447601318359 1.5885610351562496 L 2.256447601318359 1.9010610351562496 L 2.3095726013183593 1.9010610351562496 L 2.3095726013183593 1.7079360351562496 Q 2.3095726013183593 1.6835610351562496 2.3164476013183593 1.6660610351562495 Q 2.323322601318359 1.6485610351562496 2.3351976013183595 1.6366860351562496 Q 2.3470726013183594 1.6248110351562497 2.362385101318359 1.6191860351562495 Q 2.3776976013183595 1.6135610351562495 2.3939476013183594 1.6135610351562495 Q 2.4201976013183595 1.6135610351562495 2.4345726013183593 1.6238735351562497 Q 2.4489476013183595 1.6341860351562496 2.4555101013183593 1.6479360351562495 Q 2.4620726013183596 1.6616860351562495 2.4633226013183593 1.6754360351562496 Q 2.4645726013183595 1.6891860351562495 2.4645726013183595 1.6954360351562496 L 2.4645726013183595 1.9010610351562496 L 2.5176976013183596 1.9010610351562496 M 2.7764436340332033 1.8760610351562497 Q 2.7539436340332033 1.8760610351562497 2.7330061340332032 1.8691860351562495 Q 2.712068634033203 1.8623110351562495 2.6958186340332033 1.8469985351562497 Q 2.679568634033203 1.8316860351562496 2.669881134033203 1.8063735351562495 Q 2.6601936340332033 1.7810610351562497 2.6601936340332033 1.7441860351562495 Q 2.6601936340332033 1.7060610351562495 2.670818634033203 1.6794985351562497 Q 2.681443634033203 1.6529360351562497 2.6973811340332032 1.6369985351562497 Q 2.713318634033203 1.6210610351562496 2.732693634033203 1.6138735351562497 Q 2.7520686340332032 1.6066860351562495 2.7695686340332033 1.6066860351562495 Q 2.798318634033203 1.6066860351562495 2.819568634033203 1.6216860351562497 Q 2.8408186340332033 1.6366860351562496 2.8476936340332033 1.6585610351562496 L 2.890818634033203 1.6585610351562496 Q 2.884568634033203 1.6360610351562497 2.870818634033203 1.6213735351562495 Q 2.857068634033203 1.6066860351562495 2.839256134033203 1.5976235351562496 Q 2.821443634033203 1.5885610351562496 2.801131134033203 1.5851235351562496 Q 2.7808186340332033 1.5816860351562496 2.762068634033203 1.5816860351562496 Q 2.7226936340332033 1.5816860351562496 2.692693634033203 1.5944985351562495 Q 2.6626936340332032 1.6073110351562496 2.642068634033203 1.6291860351562495 Q 2.621443634033203 1.6510610351562496 2.611131134033203 1.6804360351562495 Q 2.600818634033203 1.7098110351562497 2.600818634033203 1.7429360351562495 Q 2.600818634033203 1.7779360351562497 2.612068634033203 1.8082485351562496 Q 2.623318634033203 1.8385610351562496 2.644256134033203 1.8607485351562496 Q 2.665193634033203 1.8829360351562496 2.694568634033203 1.8957485351562495 Q 2.723943634033203 1.9085610351562496 2.7608186340332033 1.9085610351562496 Q 2.802068634033203 1.9085610351562496 2.8330061340332033 1.8948110351562495 Q 2.863943634033203 1.8810610351562496 2.885193634033203 1.8648110351562497 L 2.867068634033203 1.8410610351562495 Q 2.845193634033203 1.8591860351562495 2.823631134033203 1.8676235351562496 Q 2.802068634033203 1.8760610351562497 2.7764436340332033 1.8760610351562497 M 3.2370726013183595 1.7585610351562495 L 3.2370726013183595 1.7454360351562497 Q 3.2370726013183595 1.7035610351562496 3.225197601318359 1.6729360351562497 Q 3.2133226013183593 1.6423110351562495 3.193010101318359 1.6223110351562495 Q 3.1726976013183594 1.6023110351562495 3.1458226013183594 1.5923110351562495 Q 3.1189476013183595 1.5823110351562495 3.088947601318359 1.5823110351562495 Q 3.0570726013183593 1.5823110351562495 3.0301976013183594 1.5932485351562495 Q 3.0033226013183594 1.6041860351562496 2.9833226013183594 1.6251235351562496 Q 2.9633226013183593 1.6460610351562495 2.9520726013183594 1.6757485351562496 Q 2.9408226013183594 1.7054360351562496 2.9408226013183594 1.7429360351562495 Q 2.9408226013183594 1.7741860351562495 2.9505101013183594 1.8038735351562496 Q 2.9601976013183595 1.8335610351562495 2.9798851013183594 1.8569985351562497 Q 2.9995726013183592 1.8804360351562497 3.029885101318359 1.8944985351562496 Q 3.060197601318359 1.9085610351562496 3.1014476013183594 1.9085610351562496 Q 3.1414476013183594 1.9085610351562496 3.1751976013183594 1.8944985351562496 Q 3.2089476013183593 1.8804360351562497 3.2339476013183592 1.8541860351562496 L 3.213947601318359 1.8341860351562496 Q 3.200822601318359 1.8454360351562495 3.1892601013183595 1.8548110351562497 Q 3.1776976013183593 1.8641860351562496 3.1658226013183595 1.8704360351562497 Q 3.153947601318359 1.8766860351562495 3.1411351013183593 1.8801235351562495 Q 3.1283226013183594 1.8835610351562495 3.1126976013183594 1.8835610351562495 Q 3.0951976013183593 1.8835610351562495 3.0755101013183594 1.8782485351562497 Q 3.0558226013183596 1.8729360351562496 3.0389476013183594 1.8591860351562495 Q 3.022072601318359 1.8454360351562495 3.010822601318359 1.8210610351562495 Q 2.9995726013183592 1.7966860351562497 2.9995726013183592 1.7585610351562495 L 3.2370726013183595 1.7585610351562495 M 2.9995726013183592 1.7335610351562496 Q 2.9995726013183592 1.7085610351562495 3.0048851013183593 1.6851235351562495 Q 3.0101976013183593 1.6616860351562495 3.021135101318359 1.6435610351562495 Q 3.0320726013183594 1.6254360351562496 3.048947601318359 1.6144985351562495 Q 3.0658226013183594 1.6035610351562495 3.088947601318359 1.6035610351562495 Q 3.1333226013183593 1.6035610351562495 3.1580101013183595 1.6382485351562495 Q 3.182697601318359 1.6729360351562497 3.182697601318359 1.7335610351562496 L 2.9995726013183592 1.7335610351562496 M 3.808291473388672 1.9010610351562496 L 3.520791473388672 1.9010610351562496 L 3.638916473388672 1.7691860351562496 Q 3.654541473388672 1.7504360351562496 3.672353973388672 1.7285610351562495 Q 3.690166473388672 1.7066860351562496 3.705166473388672 1.6823110351562496 Q 3.7201664733886717 1.6579360351562495 3.730166473388672 1.6316860351562497 Q 3.7401664733886717 1.6054360351562496 3.7401664733886717 1.5779360351562497 Q 3.7401664733886717 1.5348110351562496 3.717353973388672 1.5091860351562496 Q 3.694541473388672 1.4835610351562496 3.658916473388672 1.4835610351562496 Q 3.6376664733886717 1.4835610351562496 3.623603973388672 1.4916860351562495 Q 3.609541473388672 1.4998110351562497 3.6004789733886717 1.5132485351562495 Q 3.591416473388672 1.5266860351562497 3.587041473388672 1.5444985351562495 Q 3.582666473388672 1.5623110351562497 3.580791473388672 1.5816860351562496 L 3.518291473388672 1.5816860351562496 Q 3.518291473388672 1.5554360351562495 3.528916473388672 1.5323110351562494 Q 3.539541473388672 1.5091860351562496 3.558603973388672 1.4923110351562496 Q 3.577666473388672 1.4754360351562497 3.603291473388672 1.4657485351562496 Q 3.628916473388672 1.4560610351562495 3.658916473388672 1.4560610351562495 Q 3.692666473388672 1.4560610351562495 3.719541473388672 1.4657485351562496 Q 3.746416473388672 1.4754360351562497 3.7645414733886717 1.4923110351562496 Q 3.782666473388672 1.5091860351562496 3.7923539733886718 1.5313735351562496 Q 3.802041473388672 1.5535610351562497 3.802041473388672 1.5779360351562497 Q 3.802041473388672 1.6085610351562496 3.796103973388672 1.6304360351562495 Q 3.790166473388672 1.6523110351562496 3.777353973388672 1.6726235351562495 Q 3.7645414733886717 1.6929360351562495 3.744228973388672 1.7154360351562497 Q 3.723916473388672 1.7379360351562496 3.6951664733886718 1.7691860351562496 L 3.613916473388672 1.8560610351562497 L 3.808291473388672 1.8560610351562497 L 3.808291473388672 1.9010610351562496 M 3.864545440673828 1.6835610351562496 Q 3.864545440673828 1.6654360351562496 3.8673579406738283 1.6413735351562495 Q 3.870170440673828 1.6173110351562496 3.8767329406738282 1.5919985351562496 Q 3.883295440673828 1.5666860351562495 3.8942329406738283 1.5423110351562497 Q 3.905170440673828 1.5179360351562496 3.921420440673828 1.4988735351562497 Q 3.9376704406738283 1.4798110351562497 3.9601704406738283 1.4679360351562496 Q 3.9826704406738282 1.4560610351562495 4.012670440673828 1.4560610351562495 Q 4.042670440673828 1.4560610351562495 4.065482940673828 1.4679360351562496 Q 4.0882954406738286 1.4798110351562497 4.104857940673828 1.4988735351562497 Q 4.121420440673828 1.5179360351562496 4.132670440673828 1.5423110351562497 Q 4.143920440673828 1.5666860351562495 4.150482940673828 1.5919985351562496 Q 4.157045440673828 1.6173110351562496 4.159857940673828 1.6413735351562495 Q 4.162670440673828 1.6654360351562496 4.162670440673828 1.6835610351562496 Q 4.162670440673828 1.7229360351562495 4.153920440673828 1.7626235351562496 Q 4.145170440673828 1.8023110351562495 4.126732940673828 1.8348110351562497 Q 4.108295440673828 1.8673110351562496 4.079857940673828 1.8876235351562496 Q 4.051420440673828 1.9079360351562495 4.012670440673828 1.9079360351562495 Q 3.973920440673828 1.9079360351562495 3.946107940673828 1.8876235351562496 Q 3.918295440673828 1.8673110351562496 3.9001704406738282 1.8348110351562497 Q 3.8820454406738283 1.8023110351562495 3.8732954406738282 1.7626235351562496 Q 3.864545440673828 1.7229360351562495 3.864545440673828 1.6835610351562496 M 3.927045440673828 1.6835610351562496 Q 3.927045440673828 1.7154360351562497 3.929545440673828 1.7504360351562496 Q 3.932045440673828 1.7854360351562495 3.9411079406738283 1.8141860351562495 Q 3.950170440673828 1.8429360351562496 3.9670454406738282 1.8616860351562496 Q 3.983920440673828 1.8804360351562497 4.012670440673828 1.8804360351562497 Q 4.042045440673828 1.8804360351562497 4.059545440673828 1.8616860351562496 Q 4.077045440673828 1.8429360351562496 4.086107940673828 1.8141860351562495 Q 4.0951704406738285 1.7854360351562495 4.097670440673828 1.7504360351562496 Q 4.100170440673828 1.7154360351562497 4.100170440673828 1.6835610351562496 Q 4.100170440673828 1.6510610351562496 4.097670440673828 1.6154360351562496 Q 4.0951704406738285 1.5798110351562495 4.086107940673828 1.5507485351562496 Q 4.077045440673828 1.5216860351562496 4.059545440673828 1.5026235351562496 Q 4.042045440673828 1.4835610351562496 4.012670440673828 1.4835610351562496 Q 3.983920440673828 1.4835610351562496 3.9670454406738282 1.5026235351562496 Q 3.950170440673828 1.5216860351562496 3.9411079406738283 1.5507485351562496 Q 3.932045440673828 1.5798110351562495 3.929545440673828 1.6154360351562496 Q 3.927045440673828 1.6510610351562496 3.927045440673828 1.6835610351562496 M 4.521410980224609 1.9010610351562496 L 4.23391098022461 1.9010610351562496 L 4.35203598022461 1.7691860351562496 Q 4.36766098022461 1.7504360351562496 4.38547348022461 1.7285610351562495 Q 4.403285980224609 1.7066860351562496 4.418285980224609 1.6823110351562496 Q 4.43328598022461 1.6579360351562495 4.443285980224609 1.6316860351562497 Q 4.453285980224609 1.6054360351562496 4.453285980224609 1.5779360351562497 Q 4.453285980224609 1.5348110351562496 4.4304734802246095 1.5091860351562496 Q 4.407660980224609 1.4835610351562496 4.372035980224609 1.4835610351562496 Q 4.350785980224609 1.4835610351562496 4.3367234802246095 1.4916860351562495 Q 4.322660980224609 1.4998110351562497 4.313598480224609 1.5132485351562495 Q 4.3045359802246095 1.5266860351562497 4.300160980224609 1.5444985351562495 Q 4.2957859802246094 1.5623110351562497 4.293910980224609 1.5816860351562496 L 4.231410980224609 1.5816860351562496 Q 4.231410980224609 1.5554360351562495 4.2420359802246095 1.5323110351562494 Q 4.25266098022461 1.5091860351562496 4.271723480224609 1.4923110351562496 Q 4.2907859802246096 1.4754360351562497 4.316410980224609 1.4657485351562496 Q 4.342035980224609 1.4560610351562495 4.372035980224609 1.4560610351562495 Q 4.40578598022461 1.4560610351562495 4.432660980224609 1.4657485351562496 Q 4.45953598022461 1.4754360351562497 4.477660980224609 1.4923110351562496 Q 4.49578598022461 1.5091860351562496 4.50547348022461 1.5313735351562496 Q 4.51516098022461 1.5535610351562497 4.51516098022461 1.5779360351562497 Q 4.51516098022461 1.6085610351562496 4.509223480224609 1.6304360351562495 Q 4.503285980224609 1.6523110351562496 4.490473480224609 1.6726235351562495 Q 4.477660980224609 1.6929360351562495 4.457348480224609 1.7154360351562497 Q 4.43703598022461 1.7379360351562496 4.408285980224609 1.7691860351562496 L 4.3270359802246094 1.8560610351562497 L 4.521410980224609 1.8560610351562497 L 4.521410980224609 1.9010610351562496 M 4.797664947509766 1.7629360351562495 L 4.857039947509765 1.7629360351562495 L 4.857039947509765 1.7960610351562496 L 4.797664947509766 1.7960610351562496 L 4.797664947509766 1.9010610351562496 L 4.747039947509766 1.9010610351562496 L 4.747039947509766 1.7960610351562496 L 4.5589149475097654 1.7960610351562496 L 4.774539947509766 1.4635610351562496 L 4.797664947509766 1.4635610351562496 L 4.797664947509766 1.7629360351562495 M 4.6076649475097655 1.7629360351562495 L 4.747039947509766 1.7629360351562495 L 4.747039947509766 1.5473110351562496 L 4.6076649475097655 1.7629360351562495" fill="#faecd3" fill-rule="nonzero"></path></g><g clip-path="url(#SvgjsClipPath1001)"><path d=" M 0.4357772327587708 -3.0669083141162288 C 0.4357772327587708 -4.622643817674192 1.696950043317036 -5.8838166282324575 3.2526855468749996 -5.883816628232458 C 4.808421050432964 -5.883816628232458 6.069593860991229 -4.622643817674193 6.069593860991229 -3.0669083141162297 C 6.069593860991229 -1.5111728105582656 4.808421050432964 -0.25 3.252685546875 -0.25 C 1.6969500433170368 -0.25 0.4357772327587712 -1.5111728105582651 0.4357772327587708 -3.0669083141162288 Z M 0.571890242496867 -3.0669083141162288 C 0.5718902424968675 -1.5863459500901858 1.7721231828489576 -0.3861130097380956 3.252685546875 -0.3861130097380956 C 4.733247910901043 -0.3861130097380956 5.933480851253133 -1.5863459500901862 5.933480851253133 -3.0669083141162288 C 5.933480851253133 -4.547470678142272 4.733247910901043 -5.747703618494362 3.252685546875 -5.747703618494362 C 1.7721231828489576 -5.747703618494362 0.5718902424968675 -4.547470678142272 0.571890242496867 -3.066908314116229 Z" fill="#67a97b" transform="matrix(1,0,0,1,0,0)" fill-rule="nonzero"></path><path d=" M 2.929974617642342 -1.6584541570581144 L 3.5903623945940932 -1.6584541570581144 C 3.7694506052928736 -1.6584541570581144 3.9448078116020957 -1.811425337029989 3.9448078116020957 -1.9643965170018634 L 3.9448078116020957 -2.732983421250795 C 3.9448078116020957 -2.8934166100017853 3.8776497325900534 -2.968036697792944 3.7545265877346417 -3.050118794363218 L 3.131448854678469 -3.479184299162379 C 3.0717527844455423 -3.523956351837074 3.0605597712768686 -3.553804386953537 3.0605597712768686 -3.606038448407348 L 3.0605597712768686 -4.0649519883229726 L 3.4075431795057556 -4.0649519883229726 L 3.4075431795057556 -3.8149746942225917 C 3.4075431795057556 -3.7179685800940856 3.4373912146222185 -3.6843895405880644 3.4709702541282397 -3.662003514250717 C 3.5343973287507247 -3.62096246596558 3.7358715657868524 -3.479184299162379 3.825415671136242 -3.479184299162379 C 3.8627257150318215 -3.479184299162379 3.9074977677065164 -3.523956351837074 3.9074977677065164 -3.5911144308491165 L 3.9074977677065164 -4.169420111230594 C 3.9074977677065164 -4.322391291202469 3.7619885965137576 -4.475362471174343 3.5381283331402824 -4.475362471174343 L 2.91505060008411 -4.475362471174343 C 2.7173073674375403 -4.475362471174343 2.560605183076108 -4.374625352656279 2.560605183076108 -4.188075133178383 L 2.560605183076108 -3.4456052596563573 C 2.560605183076108 -3.281441066515809 2.6538802928150558 -3.203089974335093 2.762079420112235 -3.128469886543934 L 3.3776951443892917 -2.7031353861343317 C 3.426198201453545 -2.66955634662831 3.4448532234013345 -2.635977307122289 3.4448532234013345 -2.587474250058036 L 3.4448532234013345 -2.0688646399094854 L 3.0605597712768686 -2.0688646399094854 L 3.0605597712768686 -2.4195790525279297 C 3.0605597712768686 -2.5165851666564354 3.0307117361604057 -2.550164206162457 2.997132696654384 -2.572550232499805 C 2.9374366264214578 -2.6173222851744997 2.732231384995772 -2.7553694475881425 2.6576112972046135 -2.7553694475881425 C 2.6053772357508027 -2.7553694475881425 2.560605183076108 -2.714328399303006 2.560605183076108 -2.6471703202909627 L 2.560605183076108 -1.9643965170018634 C 2.560605183076108 -1.811425337029989 2.7098453586584244 -1.6584541570581144 2.929974617642342 -1.6584541570581144" fill="#67a97b" transform="matrix(1,0,0,1,0,0)" fill-rule="nonzero"></path></g></g><defs><clipPath id="SvgjsClipPath1001"><path d=" M 0.4357772327587708 -5.883816628232458 h 5.633816628232458 v 5.633816628232458 h -5.633816628232458 Z"></path></clipPath></defs></svg>